# xmcd
#
# Track frame offsets:
# 150
# 19972
# 40282
# 58849
# 77553
# 96146
# 117369
# 140368
# 158911
# 178970
# 197218
#
# Disc length: 2897 seconds
#
#
# Revision: 4
# Processed by: cddbd v1.5.2PL0 Copyright (c) Steve Scherf et al.
# Submitted via: FreeRIP 2.945 
#
DISCID=990b4f0b
DTITLE=йаяажытгс йыстас  еилаи еды - еилаи еды
DYEAR=2004
DGENRE=казйа
TTITLE0=дем пистеуы типота
TTITLE1=купалаи
TTITLE2=дгкысг йаядиас
TTITLE3=де се моиафеи
TTITLE4=лгм йоккас (сул. амтымгс баядгс)
TTITLE5=еилаи еды
TTITLE6=та ломопатиа (сул. пецйу фгма)
TTITLE7=дыдейа айяибыс
TTITLE8=лауяг фыг
TTITLE9=сам хеос
TTITLE10=акиломо лоу
EXTD=
EXTT0=
EXTT1=
EXTT2=
EXTT3=
EXTT4=
EXTT5=
EXTT6=
EXTT7=
EXTT8=
EXTT9=
EXTT10=
PLAYORDER=
